<svg height="855pt" preserveAspectRatio="xMidYMid meet" viewBox="0 0 920 855" width="920pt" xmlns="http://www.w3.org/2000/svg"><g transform="matrix(.1 0 0 -.1 0 855)"><path d="m5010 7941c-70-71-113-144-142-246-19-68-22-103-22-230 0-100 6-179 18-238 18-96 70-262 107-342l22-50 30 240c17 132 31 241 32 243 1 1 35 4 76 7 305 22 560 76 738 156 35 16 66 28 68 26s42-145 88-318c47-173 89-323 94-334 7-16 15 0 40 77 45 142 62 258 68 475l6 191-49 49c-27 27-75 62-106 77-44 21-57 33-61 56-15 71-119 140-272 181-81 22-94 22-525 32l-155 4z"/><path d="m3895 7873c-24-7-65-32-85-52-40-42-54-77-58-152l-4-76-62-7c-48-5-66-11-83-31-37-42-27-92 25-119l27-15-25-2c-14-1-34-3-45-4s-45-3-75-4c-133-5 97-41 262-41 101 0 411 24 511 40 56 9 91 5 83-9-2-3 12-123 30-266 19-143 35-276 35-295l1-35 18 35c17 35 51 162 56 210 1 14 5 54 9 90 9 85 12 329 4 342-7 11-204 3-235-9-11-4-14 10-14 75v80l-63-5-62-5 3 46c5 63-34 143-87 180-39 27-121 42-166 29z"/><path d="m3359 7396c-2-2-26-6-54-9-27-3-51-6-52-6-2-1-3-19-3-40v-39l-77-21c-43-11-114-26-158-32-88-12-105-21-105-54 0-51 52-56 227-19 113 24 108 24 104-16-7-78-7-118 1-170 9-63 40-170 49-170 5 0 99 547 99 573 0 7-23 10-31 3z"/><path d="m5150 7149v-39h109c115 0 120 2 117 50-1 25-1 25-113 27l-113 2z"/><path d="m5710 7150v-40h120 120v40 40h-120-120z"/><path d="m3457 7116c-21-8-40-16-43-19-2-2 33-7 78-11 46-3 97-9 113-12 51-11 69-10 72 6 5 24-32 40-110 45-49 4-84 1-110-9z"/><path d="m4094 7120c-40-9-54-18-54-35 0-24 16-26 87-9 38 9 94 14 129 12 50-3 59-1 48 9-25 25-142 38-210 23z"/><path d="m5214 7015c-18-28-21-94-4-124 6-12 22-24 37-27 21-6 31-1 51 21 20 24 23 36 20 77-3 26-11 54-18 63-20 24-67 19-86-10z"/><path d="m5818 7023c-52-60-12-178 52-158 41 13 63 92 39 138-22 41-65 50-91 20z"/><path d="m3485 6965c-19-18-25-35-25-70s6-52 25-70c13-14 31-25 39-25 27 0 56 50 56 95s-29 95-56 95c-8 0-26-11-39-25z"/><path d="m4158 6979c-47-27-41-149 8-171 71-32 115 101 54 162-22 22-37 24-62 9z"/><path d="m3670 6629c0-28 60-84 106-99 20-7 65-10 100-8 50 3 72 10 106 34 42 29 69 76 54 91-4 5-18-5-30-20-18-22-36-30-87-39-94-16-172-4-210 33-35 35-39 35-39 8z"/><path d="m4395 6259c-4-28-3-55 1-59 7-7 249 52 261 63 3 4-223 47-244 47-6 0-14-23-18-51z"/><path d="m5776 6056c-8-49-49-113-93-143-94-66-212-55-294 27-27 27-50 60-54 79-4 18-13 35-21 38-31 12-357-109-376-140-4-6-8-44-8-84 0-84 19-72-180-109-80-14-147-28-149-30-5-4 63-33 150-64l67-23 6-61c90-905 97-1000 103-1398 5-294 8-358 19-358 10 0 14-16 14-59 0-88 0-89 78-84 120 8 193 42 214 98 24 69 80 55 59-14-25-84-126-137-271-143-38-2-70-7-70-13 0-5 23-392 50-860 27-467 57-974 65-1125s18-299 21-328l5-52h204 203l1 168c1 92 6 383 11 647s12 692 16 950c5 401 9 473 22 488 21 23 34 22 90-13 76-46 92-86 108-259 7-80 20-222 29-316 17-188 102-1119 112-1230 3-38 13-151 22-250l16-180 181-3 181-2 6 796c11 1228 9 1571-5 1576-7 3-38 6-68 7-168 5-280 73-280 168 0 31 2 34 27 31 20-2 29-10 35-34 16-62 89-97 226-108l72-6v75c0 67 2 75 19 75 18 0 19 20 26 478 4 262 11 625 14 807l6 329 44-67c24-37 44-67 46-67 4 0 229 136 308 186l77 50-86 144c-130 217-231 366-277 405-22 19-44 35-48 35-5 0 1-21 12-47 13-30 23-80 26-133 4-72 2-92-16-133-27-62-136-177-167-177-24 0-26 3-45 95l-13 60-9-90c-4-49-13-95-19-102-16-19-65-16-73 5-4 9-13 93-22 187-8 93-16 172-19 174-2 2-22-13-44-33-38-35-69-43-104-30-23 9-20 23 21 113 20 45 34 84 31 86-9 10-143 35-184 35-42 0-42 0-48-44z"/><path d="m3146 3303c-3-219-8-695-11-1058s-8-771-11-907l-6-248h26c37 0 72-19 85-47 6-13 11-54 11-90v-66l-92 7c-51 4-108 10-126 12-24 4-61-7-150-46-64-29-125-60-136-69-33-29-46-68-46-141v-70h395 395l1 73c2 130-3 222-13 240-5 10-20 22-34 27-30 12-30 21-4 222 10 84 30 254 44 378 30 263 101 888 151 1315 19 165 42 371 52 458l17 158 75 39c42 22 78 36 82 32s10-97 13-207 8-249 11-310c3-60 7-177 10-260 13-370 18-529 30-840 3-66 7-192 10-280s8-203 10-255 7-172 11-266l6-171-30-11c-55-19-66-50-72-204l-5-138h294 294l-5 88c-6 100-19 132-87 209-33 37-52 51-66 48-11-2-71-7-132-10l-113-7v79c0 117 7 123 130 123h98l6 63c3 34 19 314 36 622s46 846 65 1196 35 653 35 673v36h-624-623z"/><path d="m6056 931c-80-6-90-9-112-34-20-24-24-39-24-98v-69h390c223 0 390 4 390 9 0 28-68 73-200 131l-145 64-105 2c-58 1-145-1-194-5z"/><path d="m5115 913c-48-26-118-111-129-155l-6-28h285 285v56c0 67-21 107-66 129-47 22-327 21-369-2z"/></g></svg>