<svg height="1200pt" preserveAspectRatio="xMidYMid meet" viewBox="0 0 1200 1200" width="1200pt" xmlns="http://www.w3.org/2000/svg"><path d="m5755 10669c-729-52-1433-327-2010-785-139-111-437-408-542-541-422-532-679-1130-768-1783-73-542-17-1126 160-1640 129-378 350-780 600-1093l86-108 42 24c23 14 146 83 272 155 127 71 397 224 600 339l370 210 5 1119 5 1119 24 55c117 263 402 373 654 251 106-51 209-178 243-299l17-62h1043c787 0 1049-3 1069-12 59-27 72-109 26-160l-29-33-1051-3-1051-2v-65-65h978c1078 0 1004 4 1038-62 13-25 15-48 9-117-31-400-225-744-546-970-332-235-775-294-1159-156-87 32-205 91-270 134-24 17-46 28-49 26-2-3-5-312-7-687-4-766-5-795-34-940-62-305-205-591-417-835l-54-62 38-10c316-83 569-119 878-125 847-18 1659 257 2330 790 144 115 457 430 565 568 250 323 458 706 585 1076 195 568 242 1194 135 1800-103 580-362 1146-748 1630-102 129-402 427-537 534-133 105-383 273-520 348-422 231-899 379-1385 428-145 15-451 19-595 9z" transform="matrix(.1 0 0 -.1 0 1200)"/></svg>